<mxfile host="Electron" modified="2023-06-15T16:22:42.972Z" agent="Mozilla/5.0 (Windows NT 10.0; Win64; x64) AppleWebKit/537.36 (KHTML, like Gecko) draw.io/21.4.0 Chrome/112.0.5615.204 Electron/24.5.1 Safari/537.36" etag="4mI4vaRwUNFPMHl-42aA" version="21.4.0" type="device">
  <diagram name="第 1 页" id="74Aa3tw0ZaZr8wN_dADZ">
    <mxGraphModel dx="546" dy="848" grid="1" gridSize="10" guides="1" tooltips="1" connect="1" arrows="1" fold="1" page="1" pageScale="1" pageWidth="827" pageHeight="1169" math="0" shadow="0">
      <root>
        <mxCell id="0" />
        <mxCell id="1" parent="0" />
        <mxCell id="P22qsHYIvVkk50QK3J05-1" value="" style="ellipse;whiteSpace=wrap;html=1;aspect=fixed;fillColor=none;" vertex="1" parent="1">
          <mxGeometry x="240" y="160" width="400" height="400" as="geometry" />
        </mxCell>
        <mxCell id="P22qsHYIvVkk50QK3J05-2" value="" style="ellipse;whiteSpace=wrap;html=1;aspect=fixed;fillColor=none;" vertex="1" parent="1">
          <mxGeometry x="280" y="200" width="320" height="320" as="geometry" />
        </mxCell>
        <mxCell id="P22qsHYIvVkk50QK3J05-3" value="" style="ellipse;whiteSpace=wrap;html=1;aspect=fixed;fillColor=none;" vertex="1" parent="1">
          <mxGeometry x="340" y="260" width="200" height="200" as="geometry" />
        </mxCell>
        <mxCell id="P22qsHYIvVkk50QK3J05-4" value="" style="ellipse;whiteSpace=wrap;html=1;aspect=fixed;fillColor=none;" vertex="1" parent="1">
          <mxGeometry x="400" y="320" width="80" height="80" as="geometry" />
        </mxCell>
        <mxCell id="P22qsHYIvVkk50QK3J05-5" value="" style="ellipse;whiteSpace=wrap;html=1;aspect=fixed;fillColor=none;" vertex="1" parent="1">
          <mxGeometry x="435" y="355" width="10" height="10" as="geometry" />
        </mxCell>
        <mxCell id="P22qsHYIvVkk50QK3J05-6" value="" style="curved=1;endArrow=classic;html=1;rounded=0;fillColor=#6a00ff;strokeColor=#3700CC;" edge="1" parent="1" target="P22qsHYIvVkk50QK3J05-5">
          <mxGeometry width="50" height="50" relative="1" as="geometry">
            <mxPoint x="680" y="160" as="sourcePoint" />
            <mxPoint x="690" y="70" as="targetPoint" />
            <Array as="points">
              <mxPoint x="480" y="120" />
              <mxPoint x="240" y="240" />
              <mxPoint x="360" y="510" />
              <mxPoint x="520" y="440" />
              <mxPoint x="510" y="310" />
              <mxPoint x="380" y="310" />
              <mxPoint x="390" y="400" />
              <mxPoint x="480" y="400" />
              <mxPoint x="470" y="340" />
              <mxPoint x="440" y="330" />
              <mxPoint x="420" y="340" />
              <mxPoint x="420" y="350" />
              <mxPoint x="430" y="360" />
            </Array>
          </mxGeometry>
        </mxCell>
        <mxCell id="P22qsHYIvVkk50QK3J05-7" value="p的軌跡" style="text;html=1;strokeColor=none;fillColor=none;align=center;verticalAlign=middle;whiteSpace=wrap;rounded=0;" vertex="1" parent="1">
          <mxGeometry x="680" y="150" width="60" height="30" as="geometry" />
        </mxCell>
        <mxCell id="P22qsHYIvVkk50QK3J05-8" value="p0" style="text;html=1;strokeColor=none;fillColor=none;align=center;verticalAlign=middle;whiteSpace=wrap;rounded=0;" vertex="1" parent="1">
          <mxGeometry x="410" y="370" width="60" height="30" as="geometry" />
        </mxCell>
      </root>
    </mxGraphModel>
  </diagram>
</mxfile>
